<svg xmlns="http://www.w3.org/2000/svg" viewBox="0 0 320 180" role="img">
  <!-- B-010 Your Gear Card: a pocket card of five checked gear rows, one row accented — the standard is written down and carried, not remembered. -->
  <rect width="320" height="180" fill="#F9FCFA"/>
  <g fill="none" stroke="#0D1E2E" stroke-opacity="0.06" stroke-width="1"><path d="M-10 30 C 62 12, 128 44, 196 26 S 300 10, 330 30"/><path d="M-10 154 C 66 136, 134 168, 204 150 S 300 134, 330 154"/></g>
<rect x="52" y="30" width="216" height="122" rx="11" fill="#F9FCFA" stroke="#0D1E2E" stroke-width="1.5"/><path d="M52 41 Q52 30 63 30 H257 Q268 30 268 41 V58 H52 Z" fill="#1E8A6E"/><path d="M52 58 H268" stroke="#0D1E2E" stroke-width="1.5"/><rect x="70" y="66" width="16" height="16" rx="3" fill="#0D1E2E"/><path d="M98 74 H248" stroke="#46555A" stroke-width="3.5" stroke-linecap="round"/><rect x="70" y="84" width="16" height="16" rx="3" fill="#0D1E2E"/><path d="M98 92 H248" stroke="#46555A" stroke-width="3.5" stroke-linecap="round"/><rect x="70" y="102" width="16" height="16" rx="3" fill="#B5446E" stroke="#0D1E2E" stroke-width="1.5"/><path d="M98 110 H248" stroke="#46555A" stroke-width="3.5" stroke-linecap="round"/><rect x="70" y="120" width="16" height="16" rx="3" fill="#0D1E2E"/><path d="M98 128 H248" stroke="#46555A" stroke-width="3.5" stroke-linecap="round"/><rect x="70" y="138" width="16" height="16" rx="3" fill="#0D1E2E"/><path d="M98 146 H248" stroke="#46555A" stroke-width="3.5" stroke-linecap="round"/>
</svg>
