<svg xmlns="http://www.w3.org/2000/svg" viewBox="0 0 960 540" role="img">
  <rect width="960" height="540" fill="#FBFCFA"/>
  <g fill="none" stroke="#0E2A23" stroke-opacity="0.06" stroke-width="1">
  <path d="M-24 86 C 168 40, 384 112, 600 76 S 912 47, 984 86"/>
  <path d="M-24 152 C 192 104, 408 176, 624 140 S 912 104, 984 152"/>
  </g>
  <path d="M0 320 Q200 292 420 288 Q640 284 800 250 Q890 230 960 200 L960 540 L0 540 Z" fill="#EEF3EC" stroke="#0E2A23" stroke-width="1.5" stroke-linejoin="round"/>
  <path d="M120 300 Q300 236 470 262 Q620 284 760 232 Q870 192 960 208 L960 250 Q890 230 800 250 Q640 284 420 288 Q200 292 120 300 Z" fill="#9CC3B4" opacity="0.5"/>
  <g stroke-linejoin="round" stroke-linecap="round">
  <path d="M46 326 V311" stroke="#0E2A23" stroke-width="5.3"/>
  <path d="M46 176 L79 281 H13 Z" fill="#1F5546" stroke="#0E2A23" stroke-width="1.5"/>
  <path d="M46 218 L73.7 317 H18.3 Z" fill="#1F5546" stroke="#0E2A23" stroke-width="1.5"/>
  <path d="M146 312 V301.6" stroke="#0E2A23" stroke-width="3.6"/>
  <path d="M146 208 L170 280.8 H122 Z" fill="#9CC3B4" stroke="#0E2A23" stroke-width="1.5"/>
  <path d="M146 237.1 L166.2 305.8 H125.8 Z" fill="#9CC3B4" stroke="#0E2A23" stroke-width="1.5"/>
  <path d="M256 302 V288.8" stroke="#0E2A23" stroke-width="4.6"/>
  <path d="M256 170 L285 262.4 H227 Z" fill="#1F5546" stroke="#0E2A23" stroke-width="1.5"/>
  <path d="M256 207 L280.4 294.1 H231.6 Z" fill="#1F5546" stroke="#0E2A23" stroke-width="1.5"/>
  <path d="M368 296 V286.8" stroke="#0E2A23" stroke-width="3.2"/>
  <path d="M368 204 L390 268.4 H346 Z" fill="#9CC3B4" stroke="#0E2A23" stroke-width="1.5"/>
  <path d="M368 229.8 L386.5 290.5 H349.5 Z" fill="#9CC3B4" stroke="#0E2A23" stroke-width="1.5"/>
  <path d="M494 292 V278.2" stroke="#0E2A23" stroke-width="4.8"/>
  <path d="M494 154 L524 250.6 H464 Z" fill="#1F5546" stroke="#0E2A23" stroke-width="1.5"/>
  <path d="M494 192.6 L519.2 283.7 H468.8 Z" fill="#1F5546" stroke="#0E2A23" stroke-width="1.5"/>
  <path d="M610 288 V278.4" stroke="#0E2A23" stroke-width="3.4"/>
  <path d="M610 192 L633 259.2 H587 Z" fill="#9CC3B4" stroke="#0E2A23" stroke-width="1.5"/>
  <path d="M610 218.9 L629.3 282.2 H590.7 Z" fill="#9CC3B4" stroke="#0E2A23" stroke-width="1.5"/>
  <path d="M734 268 V255.2" stroke="#0E2A23" stroke-width="4.5"/>
  <path d="M734 140 L762 229.6 H706 Z" fill="#1F5546" stroke="#0E2A23" stroke-width="1.5"/>
  <path d="M734 175.8 L757.5 260.3 H710.5 Z" fill="#1F5546" stroke="#0E2A23" stroke-width="1.5"/>
  <path d="M846 244 V234.4" stroke="#0E2A23" stroke-width="3.4"/>
  <path d="M846 148 L869 215.2 H823 Z" fill="#9CC3B4" stroke="#0E2A23" stroke-width="1.5"/>
  <path d="M846 174.9 L865.3 238.2 H826.7 Z" fill="#9CC3B4" stroke="#0E2A23" stroke-width="1.5"/>
  <path d="M930 224 V210.4" stroke="#0E2A23" stroke-width="4.8"/>
  <path d="M930 88 L960 183.2 H900 Z" fill="#1F5546" stroke="#0E2A23" stroke-width="1.5"/>
  <path d="M930 126.1 L955.2 215.8 H904.8 Z" fill="#1F5546" stroke="#0E2A23" stroke-width="1.5"/>
  </g>
  <path d="M-6 472 Q200 452 420 440 Q620 430 736 372 Q834 322 884 246 L912 262 Q862 342 758 402 Q634 464 428 476 Q206 486 -6 508 Z" fill="#FBFCFA" stroke="#0E2A23" stroke-width="1.5" stroke-linejoin="round"/>
  <ellipse cx="716" cy="464" rx="98.6" ry="11.4" fill="#4A5A54" opacity="0.26"/>
  <g transform="translate(716 458) rotate(-8) scale(-0.9 0.5) translate(0 34)">
  <g stroke-linecap="round" stroke-linejoin="round">
  <circle cx="-40.1" cy="-16" r="16.0" fill="#4A5A54"/>
  <circle cx="-40.1" cy="-16" r="13.3" fill="none" stroke="#FBFCFA" stroke-width="1.3" stroke-dasharray="1.9 3.4" opacity="0.5"/>
  <circle cx="-40.1" cy="-16" r="7.6" fill="#EEF3EC" stroke="#4A5A54" stroke-width="2.4"/>
  <path d="M-40.1 -22 V-10 M-46.2 -16 H-34" stroke="#4A5A54" stroke-width="2.4"/>
  <circle cx="-40.1" cy="-16" r="1.7" fill="#4A5A54"/>
  <circle cx="53.9" cy="-16" r="15.6" fill="#4A5A54"/>
  <circle cx="53.9" cy="-16" r="12.6" fill="none" stroke="#FBFCFA" stroke-width="1.3" stroke-dasharray="1.9 3.4" opacity="0.5"/>
  <circle cx="53.9" cy="-16" r="7.2" fill="#EEF3EC" stroke="#4A5A54" stroke-width="2.4"/>
  <path d="M53.9 -22 V-10 M47.8 -16 H60" stroke="#4A5A54" stroke-width="2.4"/>
  <circle cx="53.9" cy="-16" r="1.7" fill="#4A5A54"/>
  <path d="M34.1 -21.3 L-30.6 -35.8" stroke="#4A5A54" stroke-width="3.4"/>
  <path d="M52.4 -16.8 L17.4 -22.8" stroke="#4A5A54" stroke-width="2.7"/>
  <path d="M17.4 -39.6 L36.4 -18.3" stroke="#4A5A54" stroke-width="2.7"/>
  <path d="M72.2 -20.6 Q70.7 -34.3 53.9 -36.2 Q37.2 -34.3 35.7 -20.6 Q38.7 -29.7 53.9 -30.5 Q69.1 -29.7 72.2 -20.6 Z" fill="#EEF3EC" stroke="#4A5A54" stroke-width="2.4"/>
  <path d="M-21.4 -20.6 Q-23 -35.8 -40.5 -37.7 Q-58 -35.8 -59.5 -20.6 Q-55.7 -29.7 -40.5 -31.3 Q-25.2 -29.7 -21.4 -20.6 Z" fill="#EEF3EC" stroke="#4A5A54" stroke-width="2.4"/>
  <path d="M33.4 -16.8 L-23.7 -19 L-23.7 -14.5 L31.1 -12.2 Z" fill="#EEF3EC" stroke="#4A5A54" stroke-width="2.4"/>
  <path d="M14.7 -44.8 L-1.8 -46.7 L-3.7 -20.3 L31.3 -17.8 L26.4 -37.5 Z" fill="#EEF3EC" stroke="#4A5A54" stroke-width="2.4"/>
  <path d="M32.6 -22.8 L25.8 -41.9 L14.4 -44.9 L14.4 -23.6 Z" fill="#EEF3EC" stroke="#4A5A54" stroke-width="2.4"/>
  <circle cx="24.3" cy="-36.2" r="2.6" fill="#EEF3EC" stroke="#4A5A54" stroke-width="2.4"/>
  <path d="M-0.9 -40.3 L-0.9 -44.9 Q-0.9 -47.9 -5.5 -48.8 L-33.6 -51 Q-39.7 -51.4 -40.5 -47.2 L-40.5 -41.1 Q-23 -38.8 -0.9 -40.3 Z" fill="#EEF3EC" stroke="#4A5A54" stroke-width="2.4"/>
  <path d="M-35.9 -53.3 H-70.2 M-35.9 -49.9 H-70.2" stroke="#4A5A54" stroke-width="2.1"/>
  <path d="M-38.9 -54.8 V-48.3 M-43.9 -54.8 V-48.3 M-48.9 -54.8 V-48.3 M-53.8 -54.8 V-48.3 M-58.8 -54.8 V-48.3 M-63.7 -54.8 V-48.3 M-67.9 -54.8 V-48.3" stroke="#4A5A54" stroke-width="1.5"/>
  <path d="M-41.3 -49.1 L-40.8 -38.1 M-67.1 -49.1 L-59.5 -35.8" stroke="#4A5A54" stroke-width="2.1"/>
  <path d="M41.8 -41.9 H69.9 M41.8 -38.8 H69.9" stroke="#4A5A54" stroke-width="2.1"/>
  <path d="M44.0 -43.4 V-37.3 M48.6 -43.4 V-37.3 M53.2 -43.4 V-37.3 M57.8 -43.4 V-37.3 M62.3 -43.4 V-37.3 M66.9 -43.4 V-37.3" stroke="#4A5A54" stroke-width="1.5"/>
  <path d="M45.5 -38.8 L47.8 -32.0 M65.0 -38.8 L61.5 -31.4" stroke="#4A5A54" stroke-width="2.1"/>
  <path d="M17.4 -44.9 L0.6 -64" stroke="#4A5A54" stroke-width="3.4"/>
  <path d="M2.1 -62.4 Q-0.9 -70.1 -6.2 -70.8" fill="none" stroke="#4A5A54" stroke-width="2.7"/>
  <path d="M-6.2 -70.8 L-14.1 -69.6" stroke="#4A5A54" stroke-width="5.8"/>
  </g>
  </g>
  <g stroke-linecap="round">
  <circle cx="751.3" cy="451" r="14.6" fill="#4A5A54"/>
  <circle cx="751.3" cy="451" r="12.1" fill="none" stroke="#FBFCFA" stroke-width="1.1" stroke-dasharray="1.7 3" opacity="0.45"/>
  <circle cx="751.3" cy="451" r="6.9" fill="#EEF3EC" stroke="#4A5A54" stroke-width="1.5"/>
  <path d="M751.3 445.4 V456.5 M745.7 451 H756.8" stroke="#4A5A54" stroke-width="1.5"/>
  </g>
  <g stroke-linecap="round">
  <circle cx="668.6" cy="451" r="14.3" fill="#4A5A54"/>
  <circle cx="668.6" cy="451" r="11.8" fill="none" stroke="#FBFCFA" stroke-width="1.1" stroke-dasharray="1.7 3" opacity="0.45"/>
  <circle cx="668.6" cy="451" r="6.7" fill="#EEF3EC" stroke="#4A5A54" stroke-width="1.5"/>
  <path d="M668.6 445.5 V456.4 M663.2 451 H674" stroke="#4A5A54" stroke-width="1.5"/>
  </g>
  <ellipse cx="474" cy="486" rx="72" ry="9" fill="#4A5A54" opacity="0.24"/>
  <g transform="translate(474 484) scale(-1.5 1.5)">
  <g stroke-linecap="round" stroke-linejoin="round">
  <path d="M-5 -20 L20 -27 L28 -7" fill="none" stroke="#0E2A23" stroke-width="9.1"/>
  <path d="M-5 -20 L20 -27 L28 -7" fill="none" stroke="#4A5A54" stroke-width="7"/>
  <rect x="21" y="-9" width="18" height="7" rx="2.2" fill="#4A5A54" stroke="#0E2A23" stroke-width="1"/>
  <path d="M1 -16 L38 -38 L46 -6" fill="none" stroke="#0E2A23" stroke-width="10.1"/>
  <path d="M1 -16 L38 -38 L46 -6" fill="none" stroke="#0E2A23" stroke-width="8"/>
  <rect x="38" y="-8.5" width="22" height="8.5" rx="2.6" fill="#0E2A23" stroke="#0E2A23" stroke-width="1"/>
  <path d="M0 -18 L5 -56" stroke="#0E2A23" stroke-width="21.1" stroke-linecap="round"/>
  <path d="M0 -18 L5 -56" stroke="#1F5546" stroke-width="19" stroke-linecap="round"/>
  <path d="M1 -52 L13 -42 L36 -53" fill="none" stroke="#0E2A23" stroke-width="8.3"/>
  <path d="M1 -52 L13 -42 L36 -53" fill="none" stroke="#4A5A54" stroke-width="6.2"/>
  <path d="M7 -57 L19 -51 L49 -59" fill="none" stroke="#0E2A23" stroke-width="9.1"/>
  <path d="M7 -57 L19 -51 L49 -59" fill="none" stroke="#1F5546" stroke-width="7"/>
  <circle cx="51" cy="-59.6" r="4.2" fill="#0E2A23"/>
  <circle cx="39" cy="-54" r="6" fill="#0E2A23"/>
  <path d="M35.5 -61 Q45 -57.5 41 -47" fill="none" stroke="#0E2A23" stroke-width="2.6"/>
  <circle cx="8" cy="-72" r="15" fill="#FBFCFA" stroke="#0E2A23" stroke-width="1"/>
  <path d="M19.2 -76.5 Q20.9 -67.5 13.8 -64.2 L8 -64.2 L8 -76.5 Z" fill="#0E2A23"/>
  <path d="M18.2 -83 Q8 -89.8 -2.2 -84" fill="none" stroke="#1F5546" stroke-width="3.4"/>
  </g>
  </g>
  <ellipse cx="242" cy="482" rx="36" ry="7" fill="#4A5A54" opacity="0.24"/>
  <g transform="translate(242 480) scale(1.3 1.3)">
  <g stroke-linecap="round" stroke-linejoin="round">
  <path d="M-4 -31 L-17 -4" fill="none" stroke="#4A5A54" stroke-width="7.3"/>
  <rect x="-24" y="-6.5" width="15" height="6.5" rx="2" fill="#4A5A54"/>
  <path d="M4 -31 L15 -4" fill="none" stroke="#0E2A23" stroke-width="7.3"/>
  <rect x="9" y="-6.5" width="15" height="6.5" rx="2" fill="#0E2A23"/>
  <rect x="-12" y="-70" width="24" height="42" rx="10" fill="#C4622D" stroke="#0E2A23" stroke-width="1.2"/>
  <path d="M-9 -62 L-16 -42" fill="none" stroke="#0E2A23" stroke-width="8.3"/>
  <path d="M-9 -62 L-16 -42" fill="none" stroke="#4A5A54" stroke-width="6"/>
  <circle cx="-16.5" cy="-41" r="3.1" fill="#0E2A23"/>
  <path d="M9 -62 L16 -42" fill="none" stroke="#0E2A23" stroke-width="9"/>
  <path d="M9 -62 L16 -42" fill="none" stroke="#C4622D" stroke-width="6.7"/>
  <circle cx="16.5" cy="-41" r="3.4" fill="#0E2A23"/>
  <circle cx="2" cy="-85" r="14.6" fill="#FBFCFA" stroke="#0E2A23" stroke-width="1.2"/>
  <path d="M12.9 -89.4 Q14.6 -80.6 7.6 -77.4 L2 -77.4 L2 -89.4 Z" fill="#0E2A23"/>
  <path d="M11.9 -95.8 Q2 -102.4 -8 -96.8" fill="none" stroke="#C4622D" stroke-width="3.4"/>
  </g>
  </g>
  <rect x="-7.5" y="-7.5" width="15" height="15" rx="3.8" transform="translate(72 68) rotate(45)" fill="#C4622D"/>
</svg>
