<svg xmlns="http://www.w3.org/2000/svg" viewBox="0 0 960 540" role="img">
  <rect width="960" height="540" fill="#FBFCFA"/>
  <g fill="none" stroke="#0E2A23" stroke-opacity="0.06" stroke-width="1">
    <path d="M-24 86 C 168 40, 384 112, 600 76 S 912 47, 984 86"/>
    <path d="M-24 152 C 192 104, 408 176, 624 140 S 912 104, 984 152"/>
  </g>
  <circle cx="88.0" cy="78.0" r="24.0" fill="#E0A72E" stroke="#0E2A23" stroke-width="1.5"/>
  <path d="M0 300 Q150 250 300 226 Q420 206 486 200 Q560 208 660 240 Q820 292 960 344 L960 540 L0 540 Z" fill="#EEF3EC" stroke="#0E2A23" stroke-width="1.5" stroke-linejoin="round"/>
  <path d="M0 268 Q160 210 320 180 Q430 160 490 154 Q566 162 668 198 Q826 254 960 312 L960 344 Q820 292 660 240 Q560 208 486 200 Q420 206 300 226 Q150 250 0 300 Z" fill="#9CC3B4" opacity="0.55"/>
  <path d="M0 486 Q240 470 480 476 Q720 482 960 466 L960 540 L0 540 Z" fill="#9CC3B4" stroke="#0E2A23" stroke-width="1.5" stroke-linejoin="round"/>
  <g fill="none" stroke="#0E2A23" stroke-opacity="0.20" stroke-width="1.5">
    <path d="M326.0 218.0 C 406.0 183.2, 523.0 183.2, 560.0 218.0"/>
    <path d="M212.0 276.0 C 349.0 206.4, 544.0 206.4, 602.0 276.0"/>
    <path d="M118.0 334.0 C 302.0 229.6, 562.0 229.6, 638.0 334.0"/>
    <path d="M38.0 392.0 C 262.0 252.8, 576.0 252.8, 666.0 392.0"/>
    <path d="M-30.0 450.0 C 228.0 276.0, 587.0 276.0, 688.0 450.0"/>
  </g>
  <g fill="none" stroke="#0E2A23" stroke-width="17" stroke-linecap="round" stroke-linejoin="round">
    <path d="M470 186 Q382 196 300 214"/>
    <path d="M300 214 Q378 234 442 252"/>
    <path d="M442 252 Q318 274 216 292"/>
    <path d="M216 292 Q322 318 406 338"/>
    <path d="M406 338 Q280 366 168 384"/>
    <path d="M168 384 Q278 412 366 434"/>
    <path d="M366 434 Q246 462 138 478"/>
  </g>
  <g fill="none" stroke="#FBFCFA" stroke-width="14" stroke-linecap="round" stroke-linejoin="round">
    <path d="M470 186 Q382 196 300 214"/>
    <path d="M300 214 Q378 234 442 252"/>
    <path d="M442 252 Q318 274 216 292"/>
    <path d="M216 292 Q322 318 406 338"/>
    <path d="M406 338 Q280 366 168 384"/>
    <path d="M168 384 Q278 412 366 434"/>
    <path d="M366 434 Q246 462 138 478"/>
  </g>
  <g fill="none" stroke="#0E2A23" stroke-width="3.2" stroke-linecap="round" stroke-dasharray="20 12">
    <path d="M508 190 Q528 282 556 358 Q582 428 606 484"/>
    <path d="M534 190 Q556 282 584 358 Q610 428 634 482"/>
  </g>
  <g fill="none" stroke="#4A5A54" stroke-width="2.4" stroke-linecap="round" opacity="0.7">
    <path d="M546 250 q10 26 6 44 M566 400 q10 24 4 42 M556 322 q12 22 6 38"/>
  </g>
  <g fill="none" stroke="#1F5546" stroke-width="2" stroke-linecap="round">
    <path d="M492 240 l-6 -13 M492 240 l0 -16 M492 240 l7 -12"/>
    <path d="M596 268 l-6 -13 M596 268 l0 -16 M596 268 l7 -12"/>
    <path d="M490 330 l-6 -13 M490 330 l0 -16 M490 330 l7 -12"/>
    <path d="M656 344 l-6 -13 M656 344 l0 -16 M656 344 l7 -12"/>
    <path d="M516 412 l-6 -13 M516 412 l0 -16 M516 412 l7 -12"/>
    <path d="M690 424 l-6 -13 M690 424 l0 -16 M690 424 l7 -12"/>
    <path d="M566 462 l-6 -13 M566 462 l0 -16 M566 462 l7 -12"/>
    <path d="M738 380 l-6 -13 M738 380 l0 -16 M738 380 l7 -12"/>
    <path d="M712 288 l-6 -13 M712 288 l0 -16 M712 288 l7 -12"/>
    <path d="M760 452 l-6 -13 M760 452 l0 -16 M760 452 l7 -12"/>
  </g>
  <g fill="none" stroke="#0E2A23" stroke-width="1.5" stroke-linecap="round" stroke-opacity="0.5">
    <path d="M676.0 238.0 l22 14"/>
    <path d="M716.0 258.0 l22 14"/>
    <path d="M688.0 272.0 l22 14"/>
    <path d="M728.0 292.0 l22 14"/>
    <path d="M700.0 306.0 l22 14"/>
    <path d="M740.0 326.0 l22 14"/>
    <path d="M712.0 340.0 l22 14"/>
    <path d="M752.0 360.0 l22 14"/>
    <path d="M724.0 374.0 l22 14"/>
    <path d="M764.0 394.0 l22 14"/>
    <path d="M736.0 408.0 l22 14"/>
    <path d="M776.0 428.0 l22 14"/>
    <path d="M748.0 442.0 l22 14"/>
    <path d="M788.0 462.0 l22 14"/>
    <path d="M90.0 320.0 l30 5"/>
    <path d="M98.0 372.0 l30 5"/>
    <path d="M106.0 424.0 l30 5"/>
  </g>
  <path d="M486 316 L676 356 L682 388 L488 344 Z" fill="#EEF3EC" stroke="#0E2A23" stroke-width="1.5" stroke-linejoin="round"/>
  <path d="M488 336 L680 378 L682 388 L488 344 Z" fill="#9CC3B4"/>
  <g fill="none" stroke="#0E2A23" stroke-width="2.4" stroke-linecap="round">
    <path d="M566.0 334.0 l-13 24"/>
    <path d="M606.0 342.0 l-13 24"/>
    <path d="M646.0 350.0 l-13 24"/>
  </g>
  <g transform="rotate(28 640 372)" stroke="#0E2A23" stroke-linejoin="round">
    <path d="M640 372 V342" stroke-width="2.5"/>
    <path d="M640 308 L653 344 H627 Z" fill="#1F5546" stroke-width="1.5"/>
  </g>
  <g stroke-linejoin="round" stroke-linecap="round">
    <path d="M352.0 214.0 V204.8" stroke="#0E2A23" stroke-width="3.22"/>
    <path d="M352.0 122.0 L374.0 186.4 H330.0 Z" fill="#1F5546" stroke="#0E2A23" stroke-width="1.5"/>
    <path d="M352.0 147.76 L370.48 208.48 H333.52 Z" fill="#1F5546" stroke="#0E2A23" stroke-width="1.5"/>
    <path d="M410.0 200.0 V193.2" stroke="#0E2A23" stroke-width="2.38"/>
    <path d="M410.0 132.0 L427.0 179.6 H393.0 Z" fill="#9CC3B4" stroke="#0E2A23" stroke-width="1.5"/>
    <path d="M410.0 151.04 L424.28 195.92 H395.72 Z" fill="#9CC3B4" stroke="#0E2A23" stroke-width="1.5"/>
    <path d="M140.0 282.0 V272.0" stroke="#0E2A23" stroke-width="3.5"/>
    <path d="M140.0 182.0 L164.0 252.0 H116.0 Z" fill="#1F5546" stroke="#0E2A23" stroke-width="1.5"/>
    <path d="M140.0 210.0 L160.16 276.0 H119.84 Z" fill="#1F5546" stroke="#0E2A23" stroke-width="1.5"/>
    <path d="M74.0 304.0 V296.8" stroke="#0E2A23" stroke-width="2.52"/>
    <path d="M74.0 232.0 L92.0 282.4 H56.0 Z" fill="#9CC3B4" stroke="#0E2A23" stroke-width="1.5"/>
    <path d="M74.0 252.16 L89.12 299.68 H58.88 Z" fill="#9CC3B4" stroke="#0E2A23" stroke-width="1.5"/>
    <path d="M868.0 296.0 V285.2" stroke="#0E2A23" stroke-width="3.78"/>
    <path d="M868.0 188.0 L893.0 263.6 H843.0 Z" fill="#1F5546" stroke="#0E2A23" stroke-width="1.5"/>
    <path d="M868.0 218.24 L889.0 289.52 H847.0 Z" fill="#1F5546" stroke="#0E2A23" stroke-width="1.5"/>
    <path d="M924.0 318.0 V310.2" stroke="#0E2A23" stroke-width="2.73"/>
    <path d="M924.0 240.0 L943.0 294.6 H905.0 Z" fill="#9CC3B4" stroke="#0E2A23" stroke-width="1.5"/>
    <path d="M924.0 261.84 L939.96 313.32 H908.04 Z" fill="#9CC3B4" stroke="#0E2A23" stroke-width="1.5"/>
    <path d="M56.0 502.0 V490.4" stroke="#0E2A23" stroke-width="4.06"/>
    <path d="M56.0 386.0 L83.0 467.2 H29.0 Z" fill="#1F5546" stroke="#0E2A23" stroke-width="1.5"/>
    <path d="M56.0 418.48 L78.68 495.04 H33.32 Z" fill="#1F5546" stroke="#0E2A23" stroke-width="1.5"/>
    <path d="M886.0 496.0 V486.0" stroke="#0E2A23" stroke-width="3.5"/>
    <path d="M886.0 396.0 L910.0 466.0 H862.0 Z" fill="#1F5546" stroke="#0E2A23" stroke-width="1.5"/>
    <path d="M886.0 424.0 L906.16 490.0 H865.84 Z" fill="#1F5546" stroke="#0E2A23" stroke-width="1.5"/>
    <path d="M762.0 500.0 V492.4" stroke="#0E2A23" stroke-width="2.66"/>
    <path d="M762.0 424.0 L781.0 477.2 H743.0 Z" fill="#9CC3B4" stroke="#0E2A23" stroke-width="1.5"/>
    <path d="M762.0 445.28 L777.96 495.44 H746.04 Z" fill="#9CC3B4" stroke="#0E2A23" stroke-width="1.5"/>
  </g>
  <path d="M492 158 V192" stroke="#0E2A23" stroke-width="4.5" stroke-linecap="round"/>
  <path d="M470 186 Q488 172 510 190" fill="none" stroke="#0E2A23" stroke-width="3" stroke-linecap="round"/>
  <rect x="-13.0" y="-13.0" width="26.0" height="26.0" rx="6.5" transform="translate(492.0 146.0) rotate(45)" fill="#C4622D" stroke="#0E2A23" stroke-width="1.5"/>
  <rect x="-7.5" y="-7.5" width="15.0" height="15.0" rx="3.75" transform="translate(908.0 66.0) rotate(45)" fill="#C4622D"/>
</svg>
